<svg xmlns="http://www.w3.org/2000/svg" viewBox="0 0 800 700" fill="none">
  <path d="M800 0 C680 40, 580 120, 520 240 C460 360, 480 460, 420 540 C360 620, 260 660, 200 700 L800 700 Z" fill="rgba(255,252,245,0.55)"/>
  <path d="M800 80 C700 100, 620 180, 570 300 C520 420, 540 500, 490 570 C440 640, 360 670, 310 700 L800 700 Z" fill="rgba(255,252,245,0.35)"/>
  <path d="M800 160 C730 170, 670 230, 630 340 C590 450, 600 520, 560 590 C520 660, 450 685, 410 700 L800 700 Z" fill="rgba(255,252,245,0.2)"/>
  <ellipse cx="660" cy="180" rx="38" ry="38" fill="rgba(255,252,245,0.5)"/>
  <ellipse cx="580" cy="320" rx="22" ry="22" fill="rgba(255,252,245,0.4)"/>
  <ellipse cx="720" cy="380" rx="18" ry="18" fill="rgba(255,252,245,0.35)"/>
  <ellipse cx="500" cy="480" rx="14" ry="14" fill="rgba(255,252,245,0.3)"/>
  <ellipse cx="640" cy="560" rx="10" ry="10" fill="rgba(255,252,245,0.25)"/>
</svg>
