<svg xmlns="http://www.w3.org/2000/svg" viewBox="0 0 800 400" fill="none">
  <path d="M0 0 C120 30, 260 80, 400 60 C540 40, 660 10, 800 40 L800 0 Z" fill="rgba(255,252,245,0.6)"/>
  <path d="M0 0 C100 50, 240 110, 400 90 C560 70, 700 30, 800 70 L800 0 Z" fill="rgba(255,252,245,0.4)"/>
  <path d="M0 0 C80 70, 210 140, 400 120 C590 100, 720 50, 800 100 L800 0 Z" fill="rgba(255,252,245,0.25)"/>
  <ellipse cx="140" cy="45" rx="28" ry="28" fill="rgba(255,252,245,0.45)"/>
  <ellipse cx="400" cy="65" rx="18" ry="18" fill="rgba(255,252,245,0.35)"/>
  <ellipse cx="660" cy="50" rx="22" ry="22" fill="rgba(255,252,245,0.4)"/>
  <ellipse cx="260" cy="100" rx="12" ry="12" fill="rgba(255,252,245,0.3)"/>
  <ellipse cx="540" cy="90" rx="10" ry="10" fill="rgba(255,252,245,0.25)"/>
</svg>
